<?xml version="1.0" standalone="no"?>
<!DOCTYPE svg PUBLIC "-//W3C//DTD SVG 20010904//EN"
 "http://www.w3.org/TR/2001/REC-SVG-20010904/DTD/svg10.dtd">
<svg version="1.0" xmlns="http://www.w3.org/2000/svg"
 width="256.000000pt" height="256.000000pt" viewBox="0 0 256.000000 256.000000"
 preserveAspectRatio="xMidYMid meet">
<metadata>
Created by potrace 1.11, written by Peter Selinger 2001-2013
</metadata>
<g transform="translate(0.000000,256.000000) scale(0.100000,-0.100000)"
fill="#000000" stroke="none">
<path d="M360 2152 c0 -36 -5 -50 -20 -60 -16 -10 -20 -23 -20 -64 0 -43 -5
-57 -27 -81 -27 -28 -28 -32 -31 -163 l-4 -134 -24 0 c-19 0 -26 6 -30 30 -7
33 -24 41 -24 11 0 -10 -7 -24 -15 -31 -8 -7 -15 -21 -15 -31 0 -13 -13 -24
-41 -35 -35 -14 -39 -20 -33 -38 4 -12 9 -158 11 -325 4 -268 2 -306 -11 -313
-14 -8 -16 -38 -16 -206 0 -141 3 -201 12 -210 9 -9 138 -12 520 -12 332 0
508 -3 508 -10 0 -13 314 -13 338 0 10 6 223 13 522 17 l505 8 3 205 c2 177 0
207 -13 216 -14 11 -16 46 -12 306 3 161 6 304 8 318 3 21 -3 28 -38 45 -24
11 -43 26 -43 33 0 7 -7 20 -15 28 -8 9 -15 24 -15 35 0 10 -4 19 -10 19 -5 0
-10 -7 -10 -16 0 -17 -23 -44 -39 -44 -5 0 -11 54 -13 134 -3 133 -3 135 -32
165 -22 23 -29 40 -30 76 -1 35 -8 52 -24 65 -17 14 -22 29 -22 65 0 28 -4 44
-10 40 -5 -3 -10 -24 -10 -46 0 -26 -7 -46 -20 -59 -14 -14 -20 -33 -20 -67 0
-38 -5 -53 -28 -76 -26 -28 -27 -32 -30 -163 -3 -119 -5 -134 -21 -134 -22 0
-41 19 -35 35 3 7 0 16 -6 20 -6 4 -15 -6 -21 -24 -8 -23 -17 -31 -35 -31 -29
0 -29 1 -4 51 24 46 20 59 -21 59 -26 0 -29 3 -29 31 0 17 -7 37 -15 45 -8 9
-15 26 -15 40 0 13 -4 24 -10 24 -5 0 -10 -7 -10 -15 0 -13 -16 -46 -37 -74
-5 -7 -113 69 -113 80 0 8 -4 8 -13 0 -8 -6 -58 -11 -126 -10 -115 0 -117 1
-83 41 21 25 6 38 -44 38 -42 0 -44 1 -38 24 6 26 -5 54 -33 81 -9 10 -24 31
-32 49 -24 46 -63 48 -85 3 -9 -19 -23 -38 -31 -41 -21 -8 -47 -73 -40 -97 5
-16 1 -19 -30 -19 -46 0 -56 -22 -25 -56 l23 -24 -34 0 c-19 0 -40 5 -47 12
-9 9 -12 9 -12 0 0 -17 -157 -17 -162 0 -3 7 -11 0 -19 -15 -18 -36 -119 -97
-119 -72 0 9 -7 23 -15 31 -8 9 -15 24 -15 35 0 10 -4 19 -10 19 -5 0 -10 -8
-10 -19 0 -10 -7 -24 -15 -31 -8 -7 -15 -28 -15 -46 0 -30 -3 -34 -25 -34 -31
0 -32 -17 -4 -71 l20 -40 -33 3 c-24 2 -34 9 -36 23 -7 37 -21 40 -33 7 -6
-18 -17 -32 -25 -32 -11 0 -14 25 -14 128 0 109 -3 132 -20 160 -11 17 -24 32
-30 32 -5 0 -10 20 -10 44 0 33 -7 52 -25 74 -18 21 -25 42 -25 71 0 23 -4 41
-10 41 -5 0 -10 -21 -10 -48z m910 -76 c0 -7 11 -21 24 -30 33 -21 41 -52 21
-82 -21 -32 -12 -44 33 -44 l37 0 -3 -80 -4 -80 -113 0 -113 0 -4 80 -3 80 27
0 c35 0 43 14 24 42 -23 33 -20 45 22 87 40 42 52 48 52 27z m-880 -52 c0 -24
-5 -34 -15 -34 -10 0 -15 10 -15 33 0 19 3 37 6 40 13 13 24 -5 24 -39z m1778
-2 c2 -24 -1 -32 -12 -32 -12 0 -16 10 -16 36 0 45 24 42 28 -4z m-1718 -302
l0 -160 -75 0 -75 0 0 160 0 160 75 0 75 0 0 -160z m1780 -5 l0 -166 -77 3
-78 3 -3 150 c-1 82 0 155 2 162 4 9 28 13 81 13 l75 0 0 -165z m-380 66 c0
-14 -6 -21 -20 -21 -20 0 -26 22 -14 54 5 13 8 13 20 1 8 -7 14 -23 14 -34z
m-1150 3 c0 -17 -6 -24 -20 -24 -14 0 -20 7 -20 23 0 13 3 26 6 30 12 12 34
-6 34 -29z m168 3 c3 -22 -1 -27 -17 -27 -15 0 -21 6 -21 23 0 46 33 49 38 4z
m182 -3 c0 -19 -5 -24 -25 -24 -20 0 -25 5 -25 24 0 13 6 26 13 29 22 7 37 -4
37 -29z m480 -5 c0 -14 -7 -19 -25 -19 -27 0 -35 26 -13 48 15 15 38 -3 38
-29z m148 8 c3 -22 -1 -27 -17 -27 -15 0 -21 6 -21 23 0 46 33 49 38 4z m182
-507 l0 -380 -125 0 c-117 0 -125 1 -125 19 0 17 -8 20 -47 23 -35 2 -48 7
-48 18 0 9 -8 14 -18 12 -10 -2 -31 8 -48 22 -17 15 -43 26 -59 26 -16 0 -46
12 -67 26 -43 29 -100 29 -134 -2 -11 -9 -34 -19 -51 -21 -18 -2 -43 -13 -56
-26 -13 -12 -32 -21 -42 -19 -11 2 -19 -5 -23 -17 -4 -15 -15 -20 -48 -23 -35
-2 -45 -7 -47 -23 -3 -19 -9 -20 -127 -17 l-125 3 0 380 0 379 595 0 595 0 0
-380z m-1290 308 c0 -23 -5 -28 -23 -28 -27 0 -34 32 -15 67 10 21 12 21 24 5
7 -9 14 -29 14 -44z m-360 6 c0 -27 -4 -34 -20 -34 -16 0 -20 7 -20 33 0 38 6
48 26 40 8 -3 14 -19 14 -39z m1790 -5 c0 -24 -4 -29 -25 -29 -21 0 -25 5 -25
28 0 15 5 33 12 40 17 17 38 -4 38 -39z m350 5 c0 -27 -4 -34 -20 -34 -16 0
-20 7 -20 33 0 38 6 48 26 40 8 -3 14 -19 14 -39z m-1900 -393 l0 -299 -76 -4
c-42 -2 -78 -1 -80 1 -2 2 -4 139 -4 303 l0 298 80 0 80 0 0 -299z m1778 -3
l2 -298 -80 0 -80 0 0 293 c0 162 3 297 6 300 4 3 39 5 78 4 l71 -2 3 -297z
m-1968 -18 l0 -300 -77 1 c-43 0 -72 3 -65 6 9 3 12 73 12 299 l0 294 65 0 65
0 0 -300z m370 0 l0 -300 -70 0 -70 0 0 300 0 300 70 0 70 0 0 -300z m1410 0
l0 -300 -70 0 -70 0 0 300 0 300 70 0 70 0 0 -300z m360 10 c0 -265 1 -290 18
-299 12 -8 -5 -10 -65 -11 l-83 0 0 300 0 300 65 0 65 0 0 -290z m-1075 -170
c12 -11 35 -20 52 -20 17 0 42 -9 56 -20 14 -11 32 -20 41 -20 9 0 16 -5 16
-11 0 -18 -122 -3 -133 16 -12 22 -185 22 -194 -1 -3 -8 -12 -13 -19 -10 -7 3
-16 1 -19 -4 -8 -13 -85 -13 -85 0 0 6 8 10 17 10 9 0 26 9 38 20 12 11 34 21
51 22 16 1 42 13 58 26 35 28 86 25 121 -8z m15 -70 c0 -6 -33 -10 -80 -10
-47 0 -80 4 -80 10 0 6 33 10 80 10 47 0 80 -4 80 -10z m-180 -94 c0 -41 -4
-78 -10 -81 -6 -4 -10 23 -10 74 0 47 4 81 10 81 6 0 10 -31 10 -74z m200 -1
l0 -70 -95 0 -95 0 0 66 c0 36 2 68 4 70 2 2 45 4 95 4 l91 0 0 -70z m27 -47
c-2 -24 -4 -5 -4 42 0 47 2 66 4 43 2 -24 2 -62 0 -85z m-267 28 c0 -36 -5
-68 -11 -72 -8 -4 -8 -9 0 -17 6 -6 11 -52 11 -109 l0 -98 -80 0 -80 0 0 180
0 180 80 0 80 0 0 -64z m450 -116 l0 -180 -80 0 -80 0 0 99 c0 61 4 102 11
107 8 4 8 9 0 17 -6 6 -11 39 -11 74 l0 63 80 0 80 0 0 -180z m-1115 -16 l0
-169 -80 0 -80 0 -3 160 c-1 87 -1 164 2 170 2 7 33 11 82 9 l79 -1 0 -169z
m465 1 l0 -174 -125 1 -125 0 0 174 0 174 125 -1 125 0 0 -174z m940 0 l0
-173 -125 0 -125 1 0 167 c0 92 3 169 6 173 3 3 60 6 125 6 l119 -1 0 -173z
m370 5 l0 -171 -76 3 -75 3 0 163 c0 89 1 164 1 167 0 3 34 5 75 5 l75 0 0
-170z m-1970 -14 l0 -163 -74 1 -74 1 -7 152 c-4 83 -4 156 0 162 3 6 39 11
81 11 l74 0 0 -164z m365 -1 l0 -160 -67 -3 -68 -3 0 166 0 166 68 -3 67 -3 0
-160z m1415 5 l0 -160 -70 0 -70 0 0 160 0 160 70 0 70 0 0 -160z m390 0 l0
-160 -80 0 -80 0 0 160 0 160 80 0 80 0 0 -160z m-1180 45 c0 -14 5 -25 10
-25 6 0 10 11 10 25 0 20 5 25 23 25 35 0 40 -11 15 -37 -15 -16 -17 -23 -8
-23 8 0 23 12 35 26 14 18 26 23 38 18 17 -6 17 -7 -1 -20 -17 -12 -19 -23
-14 -109 l4 -95 -96 0 -97 0 2 97 c1 80 -1 98 -15 109 -12 8 -14 14 -6 19 7 4
24 -7 40 -26 20 -24 29 -29 30 -18 0 9 -7 22 -15 29 -13 11 -13 15 -3 21 26
17 48 10 48 -16z m-93 -125 c0 -50 -4 -93 -9 -96 -4 -3 -8 40 -8 96 0 56 4 99
9 96 4 -3 8 -46 8 -96z m230 -52 c-2 -29 -3 -6 -3 52 0 58 1 81 3 53 2 -29 2
-77 0 -105z m-12 -66 c16 -9 -7 -11 -110 -11 -109 0 -126 2 -108 12 29 16 191
15 218 -1z"/>
<path d="M342 1738 c-6 -6 -12 -29 -12 -49 0 -35 2 -37 36 -41 41 -5 47 3 42
58 -3 33 -7 39 -28 42 -14 2 -31 -3 -38 -10z m48 -44 c0 -28 -3 -35 -17 -32
-31 6 -29 68 2 68 11 0 15 -10 15 -36z"/>
<path d="M2127 1744 c-4 -4 -7 -27 -7 -51 l0 -43 41 0 40 0 -3 48 c-3 44 -5
47 -33 50 -17 2 -34 0 -38 -4z m51 -42 c3 -27 0 -32 -17 -32 -16 0 -21 6 -21
28 0 53 33 56 38 4z"/>
<path d="M722 1628 c-7 -7 -12 -31 -12 -55 0 -42 0 -43 35 -43 l35 0 0 49 c0
35 -4 51 -16 55 -22 8 -28 8 -42 -6z m46 -46 c3 -27 0 -32 -17 -32 -17 0 -21
6 -21 36 0 28 3 35 18 32 11 -2 18 -14 20 -36z"/>
<path d="M858 1629 c-13 -7 -18 -23 -18 -55 l0 -45 38 3 c35 3 37 5 40 39 2
24 -3 42 -13 53 -19 19 -24 19 -47 5z m40 -47 c3 -27 0 -32 -17 -32 -16 0 -21
6 -21 28 0 53 33 56 38 4z"/>
<path d="M988 1629 c-13 -7 -18 -23 -18 -54 l0 -45 40 0 40 0 0 45 c0 34 -5
47 -19 55 -23 12 -22 12 -43 -1z m40 -47 c3 -27 0 -32 -17 -32 -16 0 -21 6
-21 28 0 53 33 56 38 4z"/>
<path d="M1108 1629 c-13 -7 -18 -23 -18 -54 l0 -45 40 0 40 0 0 45 c0 34 -5
47 -19 55 -23 12 -22 12 -43 -1z m40 -47 c3 -27 0 -32 -17 -32 -16 0 -21 6
-21 28 0 53 33 56 38 4z"/>
<path d="M1237 1628 c-12 -6 -17 -22 -17 -53 l0 -45 40 0 c40 0 40 0 40 38 0
55 -27 81 -63 60z m41 -46 c3 -27 0 -32 -17 -32 -16 0 -21 6 -21 28 0 53 33
56 38 4z"/>
<path d="M1513 1633 c-8 -3 -13 -24 -13 -54 l0 -50 37 3 c36 3 37 3 36 47 -1
52 -21 70 -60 54z m38 -23 c5 -42 2 -55 -14 -58 -13 -3 -17 4 -17 32 0 25 4
36 15 36 8 0 16 -4 16 -10z"/>
<path d="M1638 1629 c-13 -7 -18 -23 -18 -54 l0 -45 40 0 40 0 0 45 c0 34 -5
47 -19 55 -23 12 -22 12 -43 -1z m40 -47 c3 -27 0 -32 -17 -32 -16 0 -21 6
-21 28 0 53 33 56 38 4z"/>
<path d="M1356 1615 c-3 -9 -6 -32 -6 -51 0 -33 1 -34 41 -34 l40 0 -3 48 c-3
45 -5 47 -34 50 -22 2 -33 -2 -38 -13z m54 -36 c0 -22 -5 -29 -20 -29 -15 0
-20 7 -20 29 0 28 16 44 33 34 4 -2 7 -17 7 -34z"/>
<path d="M1757 1624 c-4 -4 -7 -27 -7 -51 0 -43 0 -43 36 -43 l35 0 -3 48 c-3
42 -6 47 -28 50 -14 2 -29 0 -33 -4z m43 -45 c0 -19 -5 -29 -15 -29 -15 0 -22
50 -9 63 12 12 24 -4 24 -34z"/>
<path d="M722 1418 c-7 -7 -12 -32 -12 -56 l0 -43 38 3 c35 3 37 5 40 41 5 57
-33 88 -66 55z m46 -46 c3 -27 0 -32 -17 -32 -17 0 -21 6 -21 36 0 28 3 35 18
32 11 -2 18 -14 20 -36z"/>
<path d="M852 1418 c-7 -7 -12 -31 -12 -55 l0 -43 40 0 40 0 0 43 c0 45 -13
67 -40 67 -9 0 -21 -5 -28 -12z m46 -46 c3 -27 0 -32 -17 -32 -16 0 -21 6 -21
28 0 53 33 56 38 4z"/>
<path d="M988 1419 c-13 -7 -18 -23 -18 -54 l0 -45 40 0 40 0 0 45 c0 34 -5
47 -19 55 -23 12 -22 12 -43 -1z m40 -47 c3 -27 0 -32 -17 -32 -16 0 -21 6
-21 28 0 53 33 56 38 4z"/>
<path d="M1101 1416 c-7 -8 -11 -32 -9 -53 3 -36 5 -38 41 -41 l37 -3 0 43 c0
24 -5 49 -12 56 -16 16 -43 15 -57 -2z m47 -44 c3 -27 0 -32 -17 -32 -16 0
-21 6 -21 28 0 53 33 56 38 4z"/>
<path d="M1238 1419 c-13 -7 -18 -23 -18 -54 l0 -45 40 0 40 0 0 45 c0 34 -5
47 -19 55 -23 12 -22 12 -43 -1z m40 -47 c3 -27 0 -32 -17 -32 -16 0 -21 6
-21 28 0 53 33 56 38 4z"/>
<path d="M1373 1423 c-8 -3 -13 -24 -13 -54 l0 -49 35 0 c35 0 35 0 35 45 0
34 -5 47 -19 55 -11 5 -21 10 -23 9 -2 0 -9 -3 -15 -6z m35 -51 c2 -24 -1 -32
-12 -32 -12 0 -16 10 -16 36 0 45 24 42 28 -4z"/>
<path d="M1513 1423 c-8 -3 -13 -24 -13 -54 l0 -50 38 3 c35 3 37 5 40 41 5
55 -21 78 -65 60z m45 -51 c3 -27 0 -32 -17 -32 -17 0 -21 6 -21 36 0 28 3 35
18 32 11 -2 18 -14 20 -36z"/>
<path d="M1635 1414 c-10 -11 -15 -29 -13 -53 3 -34 5 -36 41 -39 l37 -3 0 43
c0 63 -30 87 -65 52z m45 -39 c0 -28 -4 -35 -20 -35 -15 0 -20 7 -20 28 0 32
7 42 27 42 8 0 13 -12 13 -35z"/>
<path d="M1768 1419 c-13 -7 -18 -23 -18 -55 l0 -45 38 3 c35 3 37 5 40 39 2
24 -3 42 -13 53 -19 19 -24 19 -47 5z m40 -47 c3 -27 0 -32 -17 -32 -16 0 -21
6 -21 28 0 53 33 56 38 4z"/>
<path d="M722 1208 c-7 -7 -12 -32 -12 -56 l0 -43 38 3 c35 3 37 5 40 39 4 53
-35 88 -66 57z m46 -46 c3 -27 0 -32 -17 -32 -17 0 -21 6 -21 36 0 28 3 35 18
32 11 -2 18 -14 20 -36z"/>
<path d="M852 1208 c-7 -7 -12 -31 -12 -55 l0 -43 40 0 40 0 0 45 c0 34 -5 47
-19 55 -25 13 -34 13 -49 -2z m46 -46 c3 -27 0 -32 -17 -32 -16 0 -21 6 -21
28 0 53 33 56 38 4z"/>
<path d="M988 1209 c-13 -7 -18 -23 -18 -54 l0 -45 40 0 40 0 0 45 c0 34 -5
47 -19 55 -23 12 -22 12 -43 -1z m40 -47 c3 -27 0 -32 -17 -32 -16 0 -21 6
-21 28 0 53 33 56 38 4z"/>
<path d="M1108 1209 c-13 -7 -18 -23 -18 -54 l0 -45 40 0 40 0 0 45 c0 34 -5
47 -19 55 -23 12 -22 12 -43 -1z m40 -47 c3 -27 0 -32 -17 -32 -16 0 -21 6
-21 28 0 53 33 56 38 4z"/>
<path d="M1238 1209 c-13 -7 -18 -23 -18 -54 l0 -45 40 0 c40 0 40 0 40 39 0
23 -7 46 -16 55 -18 19 -23 19 -46 5z m40 -47 c3 -27 0 -32 -17 -32 -16 0 -21
6 -21 28 0 53 33 56 38 4z"/>
<path d="M1371 1204 c-17 -12 -21 -24 -19 -52 3 -35 5 -37 41 -40 l37 -3 0 45
c0 55 -23 75 -59 50z m37 -42 c3 -27 0 -32 -17 -32 -16 0 -21 6 -21 28 0 53
33 56 38 4z"/>
<path d="M1512 1208 c-7 -7 -12 -32 -12 -56 l0 -43 38 3 c35 3 37 5 40 39 4
53 -35 88 -66 57z m46 -46 c3 -27 0 -32 -17 -32 -17 0 -21 6 -21 36 0 28 3 35
18 32 11 -2 18 -14 20 -36z"/>
<path d="M1638 1209 c-13 -7 -18 -23 -18 -54 l0 -45 40 0 40 0 0 45 c0 34 -5
47 -19 55 -23 12 -22 12 -43 -1z m40 -47 c3 -27 0 -32 -17 -32 -16 0 -21 6
-21 28 0 53 33 56 38 4z"/>
<path d="M1768 1209 c-13 -7 -18 -23 -18 -55 l0 -45 38 3 c36 3 37 4 37 42 0
45 -28 72 -57 55z m42 -55 c0 -17 -6 -24 -20 -24 -15 0 -20 7 -20 28 0 16 3
32 7 35 11 12 33 -14 33 -39z"/>
<path d="M714 1016 c-3 -8 -4 -31 -2 -52 3 -37 5 -39 38 -39 33 0 35 2 38 38
2 21 -2 45 -9 53 -15 18 -58 18 -65 0z m56 -41 c0 -28 -4 -35 -20 -35 -16 0
-20 7 -20 35 0 28 4 35 20 35 16 0 20 -7 20 -35z"/>
<path d="M851 1016 c-7 -8 -11 -32 -9 -53 3 -36 5 -38 38 -38 33 0 35 2 38 38
4 42 -11 67 -38 67 -10 0 -23 -6 -29 -14z m49 -41 c0 -28 -4 -35 -20 -35 -16
0 -20 7 -20 35 0 28 4 35 20 35 16 0 20 -7 20 -35z"/>
<path d="M1631 1016 c-7 -8 -11 -32 -9 -53 3 -36 5 -38 38 -38 33 0 35 2 38
38 4 42 -11 67 -38 67 -10 0 -23 -6 -29 -14z m49 -41 c0 -28 -4 -35 -20 -35
-16 0 -20 7 -20 35 0 28 4 35 20 35 16 0 20 -7 20 -35z"/>
<path d="M1757 1023 c-4 -3 -7 -28 -7 -55 l0 -49 38 3 c35 3 37 5 40 41 2 21
-2 45 -9 53 -12 14 -51 19 -62 7z m48 -48 c0 -20 -6 -31 -17 -33 -15 -3 -18 4
-18 33 0 29 3 36 18 33 11 -2 17 -13 17 -33z"/>
<path d="M348 1419 c-13 -7 -18 -23 -18 -54 l0 -45 40 0 40 0 0 43 c0 60 -22
80 -62 56z m40 -47 c3 -27 0 -32 -17 -32 -16 0 -21 6 -21 28 0 53 33 56 38 4z"/>
<path d="M348 1209 c-13 -7 -18 -23 -18 -54 l0 -45 40 0 c40 0 40 0 40 39 0
23 -7 46 -16 55 -18 19 -23 19 -46 5z m40 -47 c3 -27 0 -32 -17 -32 -16 0 -21
6 -21 28 0 53 33 56 38 4z"/>
<path d="M341 1016 c-7 -8 -11 -32 -9 -53 3 -36 5 -38 41 -41 l37 -3 0 43 c0
24 -5 49 -12 56 -16 16 -43 15 -57 -2z m49 -41 c0 -28 -4 -35 -20 -35 -16 0
-20 7 -20 35 0 28 4 35 20 35 16 0 20 -7 20 -35z"/>
<path d="M2128 1409 c-13 -7 -18 -23 -18 -54 l0 -45 40 0 40 0 0 45 c0 34 -5
47 -19 55 -23 12 -22 12 -43 -1z m40 -47 c3 -27 0 -32 -17 -32 -16 0 -21 6
-21 28 0 53 33 56 38 4z"/>
<path d="M2126 1198 c-11 -6 -16 -23 -16 -54 l0 -45 38 3 c30 2 38 7 40 27 8
56 -23 91 -62 69z m44 -49 c0 -22 -5 -29 -20 -29 -15 0 -20 7 -20 28 0 34 7
43 26 35 8 -3 14 -18 14 -34z"/>
<path d="M2121 1006 c-7 -8 -11 -32 -9 -53 3 -36 5 -38 38 -38 33 0 35 2 38
38 4 42 -11 67 -38 67 -10 0 -23 -6 -29 -14z m49 -41 c0 -28 -4 -35 -20 -35
-16 0 -20 7 -20 35 0 28 4 35 20 35 16 0 20 -7 20 -35z"/>
<path d="M172 1418 c-7 -7 -12 -32 -12 -56 l0 -43 38 3 c35 3 37 5 40 41 5 57
-33 88 -66 55z m46 -46 c3 -27 0 -32 -17 -32 -17 0 -21 6 -21 36 0 28 3 35 18
32 11 -2 18 -14 20 -36z"/>
<path d="M173 1213 c-8 -3 -13 -24 -13 -54 l0 -49 35 0 35 0 0 49 c0 55 -17
71 -57 54z m45 -51 c3 -27 0 -32 -17 -32 -21 0 -23 4 -23 35 0 31 3 36 20 33
11 -2 18 -14 20 -36z"/>
<path d="M154 1016 c-3 -8 -4 -31 -2 -52 3 -37 5 -39 38 -39 33 0 35 2 38 38
2 21 -2 45 -9 53 -15 18 -58 18 -65 0z m54 -38 c-2 -22 -9 -34 -20 -36 -15 -3
-18 4 -18 32 0 30 4 36 21 36 17 0 20 -5 17 -32z"/>
<path d="M532 1418 c-7 -7 -12 -32 -12 -56 l0 -43 38 3 c35 3 37 5 40 41 5 57
-33 88 -66 55z m46 -46 c3 -27 0 -32 -17 -32 -17 0 -21 6 -21 36 0 28 3 35 18
32 11 -2 18 -14 20 -36z"/>
<path d="M533 1213 c-8 -3 -13 -24 -13 -54 l0 -50 37 3 38 3 -4 45 c-4 54 -20
69 -58 53z m38 -25 c-1 -5 -1 -19 -1 -33 0 -16 -6 -25 -15 -25 -11 0 -15 11
-15 36 0 27 4 35 16 32 8 -2 15 -6 15 -10z"/>
<path d="M514 1016 c-3 -8 -4 -31 -2 -52 3 -37 5 -39 38 -39 33 0 35 2 38 38
2 21 -2 45 -9 53 -15 18 -58 18 -65 0z m54 -38 c-2 -22 -9 -34 -20 -36 -15 -3
-18 4 -18 32 0 30 4 36 21 36 17 0 20 -5 17 -32z"/>
<path d="M1952 1408 c-7 -7 -12 -32 -12 -56 l0 -43 38 3 c35 3 37 5 40 39 4
53 -35 88 -66 57z m46 -46 c3 -27 0 -32 -17 -32 -17 0 -21 6 -21 36 0 28 3 35
18 32 11 -2 18 -14 20 -36z"/>
<path d="M1953 1202 c-6 -4 -13 -27 -14 -52 l-4 -45 38 -3 37 -3 0 43 c0 57
-23 82 -57 60z m37 -47 c0 -28 -4 -35 -20 -35 -15 0 -20 7 -20 28 0 32 7 42
27 42 8 0 13 -12 13 -35z"/>
<path d="M1937 1013 c-4 -3 -7 -28 -7 -55 l0 -49 38 3 c35 3 37 5 37 38 0 19
-4 43 -8 53 -8 17 -47 24 -60 10z m48 -48 c0 -20 -6 -31 -17 -33 -15 -3 -18 4
-18 33 0 29 3 36 18 33 11 -2 17 -13 17 -33z"/>
<path d="M2312 1408 c-7 -7 -12 -32 -12 -56 l0 -43 38 3 c35 3 37 5 40 43 5
53 -35 84 -66 53z m46 -46 c3 -27 0 -32 -17 -32 -17 0 -21 6 -21 36 0 28 3 35
18 32 11 -2 18 -14 20 -36z"/>
<path d="M2313 1203 c-8 -3 -13 -24 -13 -54 l0 -49 35 0 c35 0 35 1 35 43 0
56 -19 76 -57 60z m37 -48 c0 -28 -4 -35 -20 -35 -15 0 -20 7 -20 28 0 32 7
42 27 42 8 0 13 -12 13 -35z"/>
<path d="M2294 1006 c-3 -8 -4 -31 -2 -52 3 -37 5 -39 38 -39 33 0 35 2 38 38
2 21 -2 45 -9 53 -15 18 -58 18 -65 0z m51 -41 c0 -20 -6 -31 -17 -33 -15 -3
-18 4 -18 33 0 29 3 36 18 33 11 -2 17 -13 17 -33z"/>
<path d="M1000 780 l0 -50 40 0 40 0 0 50 0 50 -40 0 -40 0 0 -50z m60 0 c0
-25 -4 -30 -23 -30 -20 0 -23 5 -21 28 3 35 1 32 24 32 16 0 20 -7 20 -30z"/>
<path d="M999 678 c-14 -90 -4 -112 48 -106 27 3 28 6 28 53 l0 50 -37 3 c-21
2 -38 2 -39 0z m59 -50 c-2 -25 -8 -33 -23 -33 -20 0 -31 25 -21 51 3 8 15 14
26 14 18 0 21 -5 18 -32z"/>
<path d="M1457 823 c-4 -3 -7 -26 -7 -50 l0 -43 45 0 45 0 0 50 0 50 -38 0
c-21 0 -42 -3 -45 -7z m63 -43 c0 -25 -4 -30 -25 -30 -21 0 -25 5 -25 30 0 25
4 30 25 30 21 0 25 -5 25 -30z"/>
<path d="M1454 667 c-3 -8 -4 -32 -2 -53 3 -38 4 -39 43 -39 l40 0 0 50 0 50
-38 3 c-25 2 -39 -1 -43 -11z m66 -35 c0 -35 -6 -41 -31 -35 -11 3 -19 14 -19
27 0 27 8 36 32 36 13 0 18 -8 18 -28z"/>
<path d="M327 823 c-4 -3 -7 -26 -7 -50 l0 -43 45 0 45 0 0 50 0 50 -38 0
c-21 0 -42 -3 -45 -7z m63 -43 c0 -25 -4 -30 -25 -30 -20 0 -25 5 -25 23 0 28
7 37 32 37 13 0 18 -8 18 -30z"/>
<path d="M324 667 c-3 -8 -4 -32 -2 -53 3 -38 4 -39 43 -39 l40 0 0 50 0 50
-38 3 c-25 2 -39 -1 -43 -11z m64 -39 c-2 -25 -8 -33 -23 -33 -20 0 -31 25
-21 51 3 8 15 14 26 14 18 0 21 -5 18 -32z"/>
<path d="M757 823 c-4 -3 -7 -26 -7 -50 l0 -43 45 0 45 0 0 50 0 50 -38 0
c-21 0 -42 -3 -45 -7z m63 -43 c0 -25 -4 -30 -25 -30 -21 0 -25 5 -25 30 0 25
4 30 25 30 21 0 25 -5 25 -30z"/>
<path d="M757 674 c-4 -4 -7 -27 -7 -50 0 -38 3 -44 24 -50 50 -12 61 -3 61
51 0 50 0 50 -35 53 -20 2 -39 0 -43 -4z m61 -46 c-2 -25 -8 -33 -23 -33 -20
0 -31 25 -21 51 3 8 15 14 26 14 18 0 21 -5 18 -32z"/>
<path d="M1684 816 c-3 -8 -4 -29 -2 -48 3 -31 5 -33 46 -36 l42 -3 0 50 0 51
-40 0 c-26 0 -43 -5 -46 -14z m66 -36 c0 -25 -4 -30 -25 -30 -20 0 -25 5 -25
23 0 28 7 37 32 37 13 0 18 -8 18 -30z"/>
<path d="M1687 674 c-4 -4 -7 -27 -7 -50 0 -38 3 -44 24 -50 50 -12 61 -3 61
51 0 50 0 50 -35 53 -20 2 -39 0 -43 -4z m63 -43 c0 -29 -14 -42 -37 -34 -14
5 -18 45 -6 56 3 4 15 7 25 7 13 0 18 -8 18 -29z"/>
<path d="M2110 781 l0 -51 46 0 45 0 -3 48 -3 47 -42 3 -43 3 0 -50z m70 -1
c0 -25 -4 -30 -25 -30 -21 0 -25 5 -25 30 0 25 4 30 25 30 21 0 25 -5 25 -30z"/>
<path d="M2114 667 c-3 -8 -4 -32 -2 -53 3 -42 18 -51 64 -40 23 6 25 11 22
54 -3 47 -3 47 -41 50 -25 2 -39 -1 -43 -11z m61 -42 c0 -23 -4 -30 -20 -30
-15 0 -21 8 -23 33 -3 30 -1 33 20 30 18 -2 23 -9 23 -33z"/>
<path d="M140 780 l0 -51 43 3 42 3 0 45 0 45 -42 3 -43 3 0 -51z m68 -2 c3
-24 0 -28 -22 -28 -22 0 -26 4 -26 31 0 26 3 30 23 27 16 -2 23 -11 25 -30z"/>
<path d="M144 666 c-3 -8 -4 -31 -2 -52 3 -35 6 -39 32 -42 34 -4 49 8 52 45
3 51 -5 63 -42 63 -20 0 -37 -6 -40 -14z m61 -40 c0 -22 -5 -30 -22 -32 -20
-3 -23 0 -23 32 0 31 3 35 23 32 17 -2 22 -10 22 -32z"/>
<path d="M517 823 c-4 -3 -7 -26 -7 -50 l0 -43 45 0 45 0 0 50 0 50 -38 0
c-21 0 -42 -3 -45 -7z m63 -43 c0 -25 -4 -30 -25 -30 -21 0 -25 5 -25 30 0 25
4 30 25 30 21 0 25 -5 25 -30z"/>
<path d="M514 667 c-3 -8 -4 -32 -2 -53 3 -38 4 -39 43 -39 l40 0 0 50 0 50
-38 3 c-25 2 -39 -1 -43 -11z m64 -38 c3 -26 -19 -46 -39 -33 -11 6 -12 48 -2
58 15 14 38 0 41 -25z"/>
<path d="M1920 781 l0 -51 46 0 45 0 -3 48 -3 47 -42 3 -43 3 0 -50z m70 -1
c0 -25 -4 -30 -25 -30 -21 0 -25 5 -25 30 0 25 4 30 25 30 21 0 25 -5 25 -30z"/>
<path d="M1924 667 c-3 -8 -4 -32 -2 -53 3 -38 4 -39 43 -39 l40 0 0 50 0 50
-38 3 c-25 2 -39 -1 -43 -11z m61 -42 c0 -23 -4 -30 -20 -30 -15 0 -21 8 -23
33 -3 30 -1 33 20 30 18 -2 23 -9 23 -33z"/>
<path d="M2310 781 l0 -51 46 0 45 0 -3 48 -3 47 -42 3 -43 3 0 -50z m70 -1
c0 -25 -4 -30 -25 -30 -21 0 -25 5 -25 30 0 25 4 30 25 30 21 0 25 -5 25 -30z"/>
<path d="M2314 667 c-3 -8 -4 -32 -2 -53 3 -38 4 -39 43 -39 l40 0 0 50 0 50
-38 3 c-25 2 -39 -1 -43 -11z m61 -42 c0 -24 -4 -30 -22 -31 -20 -1 -23 4 -23
33 0 30 3 34 23 31 17 -2 22 -10 22 -33z"/>
</g>
</svg>
